<svg width="131" height="21" viewBox="0 0 131 21" fill="none" xmlns="http://www.w3.org/2000/svg">
<path d="M63.012 0.511999C64.644 0.511999 65.956 1.016 66.948 2.024C67.956 3.016 68.46 4.408 68.46 6.2V14H65.1V6.656C65.1 5.616 64.836 4.824 64.308 4.28C63.78 3.72 63.06 3.44 62.148 3.44C61.236 3.44 60.508 3.72 59.964 4.28C59.436 4.824 59.172 5.616 59.172 6.656V14H55.812V6.656C55.812 5.616 55.548 4.824 55.02 4.28C54.492 3.72 53.772 3.44 52.86 3.44C51.932 3.44 51.196 3.72 50.652 4.28C50.124 4.824 49.86 5.616 49.86 6.656V14H46.5V0.703999H49.86V2.312C50.292 1.752 50.844 1.312 51.516 0.991998C52.204 0.671999 52.956 0.511999 53.772 0.511999C54.812 0.511999 55.74 0.735999 56.556 1.184C57.372 1.616 58.004 2.24 58.452 3.056C58.884 2.288 59.508 1.672 60.324 1.208C61.156 0.743999 62.052 0.511999 63.012 0.511999Z" fill="#EFF3FF"/>
<path d="M77.5524 14.216C76.2724 14.216 75.1204 13.936 74.0964 13.376C73.0724 12.8 72.2644 11.992 71.6724 10.952C71.0964 9.912 70.8084 8.712 70.8084 7.352C70.8084 5.992 71.1044 4.792 71.6964 3.752C72.3044 2.712 73.1284 1.912 74.1684 1.352C75.2084 0.775999 76.3684 0.487999 77.6484 0.487999C78.9284 0.487999 80.0884 0.775999 81.1284 1.352C82.1684 1.912 82.9844 2.712 83.5764 3.752C84.1844 4.792 84.4884 5.992 84.4884 7.352C84.4884 8.712 84.1764 9.912 83.5524 10.952C82.9444 11.992 82.1124 12.8 81.0564 13.376C80.0164 13.936 78.8484 14.216 77.5524 14.216ZM77.5524 11.288C78.1604 11.288 78.7284 11.144 79.2564 10.856C79.8004 10.552 80.2324 10.104 80.5524 9.512C80.8724 8.92 81.0324 8.2 81.0324 7.352C81.0324 6.088 80.6964 5.12 80.0244 4.448C79.3684 3.76 78.5604 3.416 77.6004 3.416C76.6404 3.416 75.8324 3.76 75.1764 4.448C74.5364 5.12 74.2164 6.088 74.2164 7.352C74.2164 8.616 74.5284 9.592 75.1524 10.28C75.7924 10.952 76.5924 11.288 77.5524 11.288Z" fill="#EFF3FF"/>
<path d="M94.3211 0.511999C95.9051 0.511999 97.1851 1.016 98.1611 2.024C99.1371 3.016 99.6251 4.408 99.6251 6.2V14H96.2651V6.656C96.2651 5.6 96.0011 4.792 95.4731 4.232C94.9451 3.656 94.2251 3.368 93.3131 3.368C92.3851 3.368 91.6491 3.656 91.1051 4.232C90.5771 4.792 90.3131 5.6 90.3131 6.656V14H86.9531V0.703999H90.3131V2.36C90.7611 1.784 91.3291 1.336 92.0171 1.016C92.7211 0.679999 93.4891 0.511999 94.3211 0.511999Z" fill="#EFF3FF"/>
<path d="M115.18 7.064C115.18 7.544 115.148 7.976 115.084 8.36H105.364C105.444 9.32 105.78 10.072 106.372 10.616C106.964 11.16 107.692 11.432 108.556 11.432C109.804 11.432 110.692 10.896 111.22 9.824H114.844C114.46 11.104 113.724 12.16 112.636 12.992C111.548 13.808 110.212 14.216 108.628 14.216C107.348 14.216 106.196 13.936 105.172 13.376C104.164 12.8 103.372 11.992 102.796 10.952C102.236 9.912 101.956 8.712 101.956 7.352C101.956 5.976 102.236 4.768 102.796 3.728C103.356 2.688 104.14 1.888 105.148 1.328C106.156 0.767999 107.316 0.487999 108.628 0.487999C109.892 0.487999 111.02 0.759999 112.012 1.304C113.02 1.848 113.796 2.624 114.34 3.632C114.9 4.624 115.18 5.768 115.18 7.064ZM111.7 6.104C111.684 5.24 111.372 4.552 110.764 4.04C110.156 3.512 109.412 3.248 108.532 3.248C107.7 3.248 106.996 3.504 106.42 4.016C105.86 4.512 105.516 5.208 105.388 6.104H111.7Z" fill="#EFF3FF"/>
<path d="M130.353 0.703999L122.121 20.288H118.545L121.425 13.664L116.097 0.703999H119.865L123.297 9.992L126.777 0.703999H130.353Z" fill="#EFF3FF"/>
<path d="M23.5 7.088C23.5 5.744 23.764 4.552 24.292 3.512C24.836 2.472 25.572 1.672 26.5 1.11201C27.428 0.552005 28.46 0.272003 29.596 0.272003C30.46 0.272003 31.284 0.464004 32.068 0.848003C32.852 1.216 33.476 1.712 33.94 2.336V0.272003L37.348 0.848003V13.784H33.94V11.816C33.524 12.472 32.94 13 32.188 13.4C31.436 13.8 30.564 14 29.572 14C28.452 14 27.428 13.712 26.5 13.136C25.572 12.56 24.836 11.752 24.292 10.712C23.764 9.656 23.5 8.448 23.5 7.088ZM33.964 7.136C33.964 6.32 33.804 5.624 33.484 5.048C33.164 4.456 32.732 4.008 32.188 3.704C31.644 3.384 31.06 3.224 30.436 3.224C29.812 3.224 29.236 3.376 28.708 3.68C28.18 3.984 27.748 4.432 27.412 5.024C27.092 5.6 26.932 6.288 26.932 7.088C26.932 7.888 27.092 8.592 27.412 9.2C27.748 9.792 28.18 10.248 28.708 10.568C29.252 10.888 29.828 11.048 30.436 11.048C31.06 11.048 31.644 10.896 32.188 10.592C32.732 10.272 33.164 9.824 33.484 9.248C33.804 8.656 33.964 7.952 33.964 7.136Z" fill="#EFF3FF"/>
<path d="M5.44801 13.488C3.81601 13.488 2.50401 12.984 1.512 11.976C0.504005 10.984 3.4741e-06 9.592 3.31744e-06 7.8L2.63554e-06 1.24558e-08L3.36 -2.81285e-07L3.36 7.344C3.36 8.384 3.624 9.176 4.152 9.72C4.68 10.28 5.4 10.56 6.312 10.56C7.224 10.56 7.952 10.28 8.496 9.72C9.024 9.176 9.28801 8.384 9.28801 7.344L9.288 -7.99527e-07L12.648 -1.09327e-06L12.648 7.344C12.648 8.384 12.912 9.176 13.44 9.72C13.968 10.28 14.688 10.56 15.6 10.56C16.528 10.56 17.264 10.28 17.808 9.72C18.336 9.176 18.6 8.384 18.6 7.344L18.6 -1.61361e-06L21.96 -1.90735e-06L21.96 13.296L18.6 13.296L18.6 11.688C18.168 12.248 17.616 12.688 16.944 13.008C16.256 13.328 15.504 13.488 14.688 13.488C13.648 13.488 12.72 13.264 11.904 12.816C11.088 12.384 10.456 11.76 10.008 10.944C9.576 11.712 8.95201 12.328 8.13601 12.792C7.30401 13.256 6.40801 13.488 5.44801 13.488Z" fill="#EFF3FF"/>
</svg>
