<svg width="183" height="40" viewBox="0 0 183 40" fill="none" xmlns="http://www.w3.org/2000/svg">
<path d="M34.1422 5.85781C30.3647 2.08031 25.3422 0 20 0C14.6578 0 9.63531 2.08031 5.85781 5.85781C2.08031 9.63531 0 14.6578 0 20C0 25.3422 2.08039 30.3646 5.85781 34.1422C9.63523 37.9198 14.6578 40 20 40C25.3422 40 30.3647 37.9197 34.1422 34.1422C37.9197 30.3647 40 25.3422 40 20C40 14.6578 37.9196 9.63539 34.1422 5.85781Z" fill="#33CC95"/>
<g clip-path="url(#clip0_35212_417)">
<path d="M20.5714 8V33.1429" stroke="#EFF3FF" stroke-width="2" stroke-linecap="round" stroke-linejoin="round"/>
<path d="M26.2857 12.5714H17.7143C16.6534 12.5714 15.636 12.9929 14.8859 13.743C14.1357 14.4931 13.7143 15.5106 13.7143 16.5714C13.7143 17.6323 14.1357 18.6497 14.8859 19.3999C15.636 20.15 16.6534 20.5714 17.7143 20.5714H23.4286C24.4894 20.5714 25.5069 20.9929 26.257 21.743C27.0072 22.4932 27.4286 23.5106 27.4286 24.5714C27.4286 25.6323 27.0072 26.6497 26.257 27.3999C25.5069 28.15 24.4894 28.5714 23.4286 28.5714H13.7143" stroke="#EFF3FF" stroke-width="2" stroke-linecap="round" stroke-linejoin="round"/>
</g>
<path d="M115.012 14.512C116.644 14.512 117.956 15.016 118.948 16.024C119.956 17.016 120.46 18.408 120.46 20.2V28H117.1V20.656C117.1 19.616 116.836 18.824 116.308 18.28C115.78 17.72 115.06 17.44 114.148 17.44C113.236 17.44 112.508 17.72 111.964 18.28C111.436 18.824 111.172 19.616 111.172 20.656V28H107.812V20.656C107.812 19.616 107.548 18.824 107.02 18.28C106.492 17.72 105.772 17.44 104.86 17.44C103.932 17.44 103.196 17.72 102.652 18.28C102.124 18.824 101.86 19.616 101.86 20.656V28H98.5V14.704H101.86V16.312C102.292 15.752 102.844 15.312 103.516 14.992C104.204 14.672 104.956 14.512 105.772 14.512C106.812 14.512 107.74 14.736 108.556 15.184C109.372 15.616 110.004 16.24 110.452 17.056C110.884 16.288 111.508 15.672 112.324 15.208C113.156 14.744 114.052 14.512 115.012 14.512Z" fill="#EFF3FF"/>
<path d="M129.552 28.216C128.272 28.216 127.12 27.936 126.096 27.376C125.072 26.8 124.264 25.992 123.672 24.952C123.096 23.912 122.808 22.712 122.808 21.352C122.808 19.992 123.104 18.792 123.696 17.752C124.304 16.712 125.128 15.912 126.168 15.352C127.208 14.776 128.368 14.488 129.648 14.488C130.928 14.488 132.088 14.776 133.128 15.352C134.168 15.912 134.984 16.712 135.576 17.752C136.184 18.792 136.488 19.992 136.488 21.352C136.488 22.712 136.176 23.912 135.552 24.952C134.944 25.992 134.112 26.8 133.056 27.376C132.016 27.936 130.848 28.216 129.552 28.216ZM129.552 25.288C130.16 25.288 130.728 25.144 131.256 24.856C131.8 24.552 132.232 24.104 132.552 23.512C132.872 22.92 133.032 22.2 133.032 21.352C133.032 20.088 132.696 19.12 132.024 18.448C131.368 17.76 130.56 17.416 129.6 17.416C128.64 17.416 127.832 17.76 127.176 18.448C126.536 19.12 126.216 20.088 126.216 21.352C126.216 22.616 126.528 23.592 127.152 24.28C127.792 24.952 128.592 25.288 129.552 25.288Z" fill="#EFF3FF"/>
<path d="M146.321 14.512C147.905 14.512 149.185 15.016 150.161 16.024C151.137 17.016 151.625 18.408 151.625 20.2V28H148.265V20.656C148.265 19.6 148.001 18.792 147.473 18.232C146.945 17.656 146.225 17.368 145.313 17.368C144.385 17.368 143.649 17.656 143.105 18.232C142.577 18.792 142.313 19.6 142.313 20.656V28H138.953V14.704H142.313V16.36C142.761 15.784 143.329 15.336 144.017 15.016C144.721 14.68 145.489 14.512 146.321 14.512Z" fill="#EFF3FF"/>
<path d="M167.18 21.064C167.18 21.544 167.148 21.976 167.084 22.36H157.364C157.444 23.32 157.78 24.072 158.372 24.616C158.964 25.16 159.692 25.432 160.556 25.432C161.804 25.432 162.692 24.896 163.22 23.824H166.844C166.46 25.104 165.724 26.16 164.636 26.992C163.548 27.808 162.212 28.216 160.628 28.216C159.348 28.216 158.196 27.936 157.172 27.376C156.164 26.8 155.372 25.992 154.796 24.952C154.236 23.912 153.956 22.712 153.956 21.352C153.956 19.976 154.236 18.768 154.796 17.728C155.356 16.688 156.14 15.888 157.148 15.328C158.156 14.768 159.316 14.488 160.628 14.488C161.892 14.488 163.02 14.76 164.012 15.304C165.02 15.848 165.796 16.624 166.34 17.632C166.9 18.624 167.18 19.768 167.18 21.064ZM163.7 20.104C163.684 19.24 163.372 18.552 162.764 18.04C162.156 17.512 161.412 17.248 160.532 17.248C159.7 17.248 158.996 17.504 158.42 18.016C157.86 18.512 157.516 19.208 157.388 20.104H163.7Z" fill="#EFF3FF"/>
<path d="M182.353 14.704L174.121 34.288H170.545L173.425 27.664L168.097 14.704H171.865L175.297 23.992L178.777 14.704H182.353Z" fill="#EFF3FF"/>
<path d="M75.5 21.088C75.5 19.744 75.764 18.552 76.292 17.512C76.836 16.472 77.572 15.672 78.5 15.112C79.428 14.552 80.46 14.272 81.596 14.272C82.46 14.272 83.284 14.464 84.068 14.848C84.852 15.216 85.476 15.712 85.94 16.336V14.272L89.348 14.848V27.784H85.94V25.816C85.524 26.472 84.94 27 84.188 27.4C83.436 27.8 82.564 28 81.572 28C80.452 28 79.428 27.712 78.5 27.136C77.572 26.56 76.836 25.752 76.292 24.712C75.764 23.656 75.5 22.448 75.5 21.088ZM85.964 21.136C85.964 20.32 85.804 19.624 85.484 19.048C85.164 18.456 84.732 18.008 84.188 17.704C83.644 17.384 83.06 17.224 82.436 17.224C81.812 17.224 81.236 17.376 80.708 17.68C80.18 17.984 79.748 18.432 79.412 19.024C79.092 19.6 78.932 20.288 78.932 21.088C78.932 21.888 79.092 22.592 79.412 23.2C79.748 23.792 80.18 24.248 80.708 24.568C81.252 24.888 81.828 25.048 82.436 25.048C83.06 25.048 83.644 24.896 84.188 24.592C84.732 24.272 85.164 23.824 85.484 23.248C85.804 22.656 85.964 21.952 85.964 21.136Z" fill="#EFF3FF"/>
<path d="M57.448 27.488C55.816 27.488 54.504 26.984 53.512 25.976C52.504 24.984 52 23.592 52 21.8L52 14L55.36 14L55.36 21.344C55.36 22.384 55.624 23.176 56.152 23.72C56.68 24.28 57.4 24.56 58.312 24.56C59.224 24.56 59.952 24.28 60.496 23.72C61.024 23.176 61.288 22.384 61.288 21.344L61.288 14L64.648 14L64.648 21.344C64.648 22.384 64.912 23.176 65.44 23.72C65.968 24.28 66.688 24.56 67.6 24.56C68.528 24.56 69.264 24.28 69.808 23.72C70.336 23.176 70.6 22.384 70.6 21.344L70.6 14L73.96 14L73.96 27.296L70.6 27.296L70.6 25.688C70.168 26.248 69.616 26.688 68.944 27.008C68.256 27.328 67.504 27.488 66.688 27.488C65.648 27.488 64.72 27.264 63.904 26.816C63.088 26.384 62.456 25.76 62.008 24.944C61.576 25.712 60.952 26.328 60.136 26.792C59.304 27.256 58.408 27.488 57.448 27.488Z" fill="#EFF3FF"/>
<defs>
<clipPath id="clip0_35212_417">
<rect width="27.4286" height="27.4286" fill="white" transform="translate(6.85715 6.85714)"/>
</clipPath>
</defs>
</svg>
